# xmcd CD database file
#
# Track frame offsets:
#	183
#	11970
#	27818
#	41020
#	48333
#	62128
#	74190
#	87120
#	99495
#	118138
#	129623
#	142415
#	155665
#	168438
#	179803
#	192918
#	202718
#	213873
#	226345
#	239113
#	249360
#	260353
#	275553
#	287360
#
# Disc length: 4010 seconds
#
# Revision: 2
# Processed by: cddbd v1.5.2PL0 Copyright (c) Steve Scherf et al.
# Submitted via: CDex 1.51
#
DISCID=700fa818
DTITLE=Sonny Boy Williamson II - Work With Me
DYEAR=1900
DGENRE=Blues
TTITLE0=Good Evening Everybody
TTITLE1=You Killing Me
TTITLE2=Work With Me
TTITLE3=I Wonder Why
TTITLE4=Don't Lose Your Eye
TTITLE5=This Is My Apartment
TTITLE6=Like Wolf
TTITLE7=Dissatisfied
TTITLE8='99'
TTITLE9=She Got Next To Me
TTITLE10=Keep Your Hand Out Of My Pocket
TTITLE11=Open Road
TTITLE12=I Can't Do Without You
TTITLE13=Down Child
TTITLE14=Tou Young To Die
TTITLE15=She's My Baby
TTITLE16=Stop Right Now
TTITLE17=The Hunt
TTITLE18=Too Old To Think
TTITLE19=That's All I Want
TTITLE20=Got To Move
TTITLE21=My Younger Days
TTITLE22=Stop Crying
TTITLE23=Close To Me
EXTD=
EXTT0=
EXTT1=
EXTT2=
EXTT3=
EXTT4=
EXTT5=
EXTT6=
EXTT7=
EXTT8=
EXTT9=
EXTT10=
EXTT11=
EXTT12=
EXTT13=
EXTT14=
EXTT15=
EXTT16=
EXTT17=
EXTT18=
EXTT19=
EXTT20=
EXTT21=
EXTT22=
EXTT23=
PLAYORDER=
